<?xml version="1.0" encoding="UTF-8" standalone="no"?><!DOCTYPE svg PUBLIC "-//W3C//DTD SVG 1.1//EN" "http://www.w3.org/Graphics/SVG/1.1/DTD/svg11.dtd"><svg width="100%" height="100%" viewBox="0 0 43405 43405" version="1.1" xmlns="http://www.w3.org/2000/svg" xmlns:xlink="http://www.w3.org/1999/xlink" xml:space="preserve" xmlns:serif="http://www.serif.com/" style="fill-rule:evenodd;clip-rule:evenodd;stroke-linejoin:round;stroke-miterlimit:2;"><g><path d="M21582.3,2629.38l1023.78,1922.83c230.137,354.884 479.629,668.9 772.141,961.409c860.321,849.57 1662.58,1757.21 2400.3,2716.47c1733.56,2275.55 2903.6,4804.92 3738.11,7540.75c501.137,1669.03 772.141,3385.37 793.65,5116.79c83.879,5181.29 -1692.69,9629.17 -5271.62,13326.4c-580.721,585.021 -1210.91,1124.87 -1881.96,1606.65c-354.883,0 -522.65,-271.004 -668.904,-522.646c-266.7,-464.575 -443.067,-974.316 -522.646,-1503.42c-126.896,-628.038 -208.629,-1253.92 -167.762,-1899.16l-0,-292.512c-27.963,-66.675 -339.829,-28825.1 -215.079,-28973.5l-0.009,-0.042Z" style="fill:#599636;fill-rule:nonzero;"/><path d="M21582.3,2567.01c-40.866,-83.879 -83.883,-21.508 -126.9,21.509c21.509,419.408 -126.895,793.65 -354.883,1150.68c-251.646,354.883 -585.021,628.037 -920.546,920.546c-1856.15,1606.65 -3318.7,3550.99 -4488.75,5723.29c-1559.34,2922.95 -2361.59,6056.67 -2587.43,9358.17c-103.237,1189.4 376.392,5387.79 752.784,6598.67c1023.78,3217.61 2860.58,5912.58 5243.67,8250.5c585.021,563.512 1210.91,1086.16 1856.15,1589.45c189.271,-0 208.629,-167.763 251.646,-292.509c83.879,-266.7 146.254,-537.704 189.271,-813.004l419.408,-3131.58l-234.437,-29375.8l0.016,0.033Z" style="fill:#6cac48;fill-rule:nonzero;"/><path d="M22606.1,37089.7c40.867,-479.634 271,-875.384 522.646,-1273.28c-251.646,-103.242 -438.763,-311.871 -585.021,-542.005c-126.896,-219.383 -230.133,-449.52 -311.867,-690.412c-292.508,-875.379 -354.883,-1798.08 -438.762,-2692.81l-0,-542.004c-103.242,83.883 -126.9,793.65 -126.9,899.038c-60.221,948.508 -187.121,1888.41 -376.392,2819.71c-62.375,376.392 -103.237,752.783 -335.525,1086.16c0,40.866 0,83.883 21.509,146.254c376.391,1107.67 479.629,2234.69 542.004,3385.38l-0,419.408c-0,501.137 -21.509,395.75 395.746,563.512c167.766,62.371 354.883,83.88 522.65,208.63c126.895,-0 146.254,-103.242 146.254,-189.275l-62.375,-690.409l-0,-1922.83c-19.359,-335.525 43.016,-668.9 86.033,-985.066Z" style="fill:#c2bfbf;fill-rule:nonzero;"/></g></svg>