<?xml version="1.0" encoding="UTF-8" standalone="no"?><!DOCTYPE svg PUBLIC "-//W3C//DTD SVG 1.1//EN" "http://www.w3.org/Graphics/SVG/1.1/DTD/svg11.dtd"><svg width="100%" height="100%" viewBox="0 0 792 792" version="1.1" xmlns="http://www.w3.org/2000/svg" xmlns:xlink="http://www.w3.org/1999/xlink" xml:space="preserve" xmlns:serif="http://www.serif.com/" style="fill-rule:evenodd;clip-rule:evenodd;stroke-linejoin:round;stroke-miterlimit:2;"><g><path d="M608.693,623.411c-1.849,-3.951 -2.68,-5.937 -3.677,-7.834c-26.732,-50.854 -53.396,-101.707 -80.404,-152.561c-2.707,-5.099 -2.364,-8.109 1.34,-12.507c42.539,-49.686 84.528,-99.646 127.135,-149.126c1.505,-1.745 2.845,-3.594 3.408,-6.707c-12.369,3.223 -24.739,6.412 -37.178,9.69c-51.335,13.607 -103.082,27.145 -153.935,40.958c-4.777,1.285 -6.941,-0.11 -9.347,-4.082c-29.137,-48.724 -58.481,-97.584 -87.963,-145.689c-1.505,-2.522 -3.147,-4.969 -6.363,-7.079c-2.364,12.989 -4.756,25.908 -7.079,38.897c-8.178,45.837 -16.355,91.399 -24.464,137.442c-0.887,4.941 -2.096,9.896 -2.523,14.844c-0.405,4.728 -2.845,6.473 -7.147,7.834c-60.543,19.036 -120.949,38.209 -181.424,57.382c-2.652,0.832 -5.257,1.932 -8.109,4.509c49.479,19.654 98.959,39.308 149.125,59.306c-1.828,1.45 -3.037,2.577 -4.377,3.436c-30.925,19.998 -61.918,39.996 -92.774,60.062c-3.704,2.419 -6.632,2.763 -10.789,0.887c-36.972,-16.631 -74.219,-32.986 -111.329,-49.479c-16.63,-7.422 -31.543,-17.249 -43.157,-31.543c-26.32,-32.162 -21.097,-68.722 13.951,-91.4c11.476,-7.353 24.533,-12.782 37.522,-17.043c59.306,-19.31 118.887,-37.934 177.988,-56.626c4.989,-1.587 7.284,-3.814 8.246,-9.209c7.972,-45.905 16.15,-92.086 24.465,-137.442c4.426,-24.534 6.762,-49.617 18.692,-72.157c4.57,-8.659 10.034,-17.112 16.631,-24.328c23.64,-26.251 56.557,-27.213 81.778,-2.254c8.453,8.453 15.669,18.349 21.922,28.588c27.489,44.875 54.565,90.025 81.779,135.381c3.195,5.34 6.068,6.412 11.957,4.859c66.316,-17.799 132.632,-35.323 199.292,-52.847c13.744,-3.622 27.557,-4.934 41.645,-2.302c30.581,5.717 43.981,29 33.605,58.619c-4.694,13.47 -12.851,24.809 -21.991,35.598c-46.318,54.496 -92.774,109.267 -138.817,163.556c-3.787,4.454 -3.862,7.628 -1.237,12.645c27.763,52.297 55.252,104.456 83.153,157.372c6.604,12.507 11.682,25.564 11.82,39.927c0.323,32.711 -23.641,59.513 -56.146,64.323c-18.211,2.66 -35.116,-1.23 -52.228,-6.494c-41.576,-12.851 -83.153,-25.496 -125.073,-38.072c-3.869,-1.154 -5.346,-2.687 -6.04,-6.844c-4.783,-29.344 -10.034,-58.62 -15.119,-87.964c-0.13,-0.804 0.11,-1.663 0.248,-3.463c47.486,13.126 94.835,26.045 143.627,39.583" style="fill:#e25a1c;fill-rule:nonzero;"/></g></svg>