<svg xmlns="http://www.w3.org/2000/svg" viewBox="0 0 24 24" width="128" height="128" color="#000000" fill="none">
    <defs />
    <path fill="currentColor" d="M3.416,20.403 C2.538,19.525 1.968,18.487 1.707,17.948 C1.698,17.93 1.69,17.91 1.683,17.892 C0.954,16.014 0.941,11.366 3.304,4.448 C3.354,4.301 3.449,4.173 3.576,4.082 C5.4,2.77 7.228,2.422 8.775,2.254 C9.114,2.217 9.435,2.414 9.557,2.733 L10.551,5.341 C11.532,5.218 12.467,5.218 13.448,5.342 L14.441,2.733 C14.562,2.414 14.883,2.217 15.223,2.254 C16.77,2.421 18.598,2.77 20.422,4.082 C20.549,4.173 20.644,4.3 20.694,4.448 C23.057,11.366 23.045,16.014 22.315,17.892 C22.308,17.912 22.3,17.93 22.291,17.948 C21.401,19.787 19.756,21.75 17.807,21.75 C17.14,21.75 16.293,20.919 15.699,20.221 C15.359,19.82 14.859,19.164 14.586,18.49 C13.713,18.666 12.856,18.754 12,18.754 L11.998,18.754 C11.142,18.754 10.286,18.666 9.413,18.49 C9.14,19.164 8.639,19.82 8.299,20.221 C7.705,20.919 6.858,21.75 6.191,21.75 C5.243,21.75 4.31,21.298 3.416,20.403 Z M17.264,17.702 C16.855,17.858 16.452,17.997 16.054,18.118 C16.445,18.881 17.447,20.006 17.898,20.247 C19.035,20.173 20.253,18.701 20.928,17.322 C21.842,14.905 20.767,9.385 19.353,5.165 C18.086,4.308 16.828,3.984 15.634,3.816 L14.948,5.617 C15.661,5.784 16.416,6.009 17.241,6.292 C17.633,6.426 17.842,6.852 17.708,7.244 C17.601,7.556 17.311,7.752 16.999,7.752 C16.918,7.752 16.837,7.739 16.756,7.711 C13.021,6.434 10.976,6.434 7.241,7.711 C6.849,7.845 6.423,7.636 6.289,7.244 C6.155,6.852 6.364,6.426 6.756,6.292 C7.582,6.009 8.337,5.784 9.05,5.616 L8.364,3.816 C7.17,3.984 5.912,4.308 4.645,5.165 C3.232,9.385 2.156,14.905 3.07,17.322 C3.744,18.701 4.962,20.171 6.1,20.247 C6.552,20.006 7.553,18.881 7.945,18.118 C7.547,17.997 7.143,17.858 6.734,17.702 C6.346,17.556 6.152,17.122 6.299,16.736 C6.446,16.348 6.879,16.154 7.266,16.301 C10.583,17.562 13.415,17.562 16.733,16.301 C17.119,16.154 17.552,16.347 17.699,16.736 C17.847,17.122 17.653,17.556 17.264,17.702 Z M7.5,13 C6.948,13 6.5,12.552 6.5,12 C6.5,11.448 6.948,11 7.5,11 C8.052,11 8.505,11.448 8.505,12 C8.505,12.552 8.062,13 7.51,13 Z M16.49,13 C15.938,13 15.49,12.552 15.49,12 C15.49,11.448 15.938,11 16.49,11 C17.042,11 17.494,11.448 17.494,12 C17.494,12.552 17.052,13 16.5,13 Z" />
</svg>