<?xml version="1.0" encoding="UTF-8" standalone="no"?>
<!DOCTYPE svg PUBLIC "-//W3C//DTD SVG 1.1//EN" "http://www.w3.org/Graphics/SVG/1.1/DTD/svg11.dtd">
<svg width="100%" height="100%" viewBox="0 0 241 250" version="1.1" xmlns="http://www.w3.org/2000/svg" xmlns:xlink="http://www.w3.org/1999/xlink" xml:space="preserve" xmlns:serif="http://www.serif.com/" style="fill-rule:evenodd;clip-rule:evenodd;stroke-linejoin:round;stroke-miterlimit:2;">
    <g transform="matrix(1,0,0,1,-1495.03,-392.287)">
        <g transform="matrix(1,0,0,1,1286.91,203.809)">
            <g transform="matrix(1.03654,0,0,1.00106,-6.79478,-0.199835)">
                <path d="M207.339,360.227L207.339,188.478L265.423,188.478L265.423,356.664C265.423,373.513 276.295,385.942 292.567,385.942L362.407,385.942L362.407,438.213L275.281,438.213C238.216,432.026 209.529,399.776 207.339,360.227Z" style="fill:white;"/>
            </g>
            <g transform="matrix(0.99687,0,0,1,1.73501,0)">
                <path d="M368.34,350.654L368.34,370.128L300.667,370.128C291.775,370.128 284.556,362.931 284.556,354.067L284.556,312.855L330.422,312.855C351.349,312.855 368.34,329.792 368.34,350.654Z" style="fill:white;"/>
            </g>
            <g transform="matrix(0.890734,0,0,2.87881,41.3258,-813.847)">
                <path d="M457.47,434.732L389.408,434.732L388.77,404.94C389.114,402.167 383.219,397.303 372.874,392.361C371.544,391.725 370.188,391.112 368.817,390.522C376.258,389.797 384.787,388.629 393.45,387.081C404.976,385.022 414.507,382.691 420.487,380.614C425.63,382.074 455.398,391.101 457.245,404.94C457.317,405.48 457.392,405.982 457.47,406.447L457.47,434.732Z" style="fill:white;"/>
            </g>
            <g transform="matrix(1,0,0,1.012,0,-3.51908)">
                <path d="M330.31,243.22C347.286,241.197 360.483,226.955 360.637,209.659L361.085,189.743L425.811,189.743L425.811,210.154C425.811,256.691 387.576,294.472 340.481,294.472L285.52,294.472L285.52,243.428L324.497,243.428C325.044,243.454 329.482,243.319 330.31,243.22Z" style="fill:white;"/>
            </g>
        </g>
    </g>
</svg>
