<svg xmlns="http://www.w3.org/2000/svg" viewBox="0 0 24 24" width="128" height="128" color="#000000" fill="none">
    <defs />
    <path fill="currentColor" d="M12.751,8.271 C14.486,8.369 16.104,8.802 17.478,9.494 C17.999,8.742 18.872,8.25 19.86,8.25 C21.449,8.25 22.75,9.528 22.75,11.12 C22.75,12.148 22.207,13.045 21.397,13.551 C21.626,14.166 21.75,14.819 21.75,15.5 C21.75,17.596 20.572,19.427 18.803,20.704 C17.033,21.983 14.625,22.75 12,22.75 C9.375,22.75 6.967,21.983 5.197,20.704 C3.428,19.427 2.25,17.596 2.25,15.5 C2.25,14.819 2.374,14.166 2.603,13.551 C1.793,13.045 1.25,12.148 1.25,11.12 C1.25,9.528 2.551,8.25 4.14,8.25 C5.128,8.25 6.001,8.742 6.522,9.494 C7.897,8.802 9.515,8.368 11.251,8.271 C11.254,7.439 11.27,6.737 11.348,6.157 C11.451,5.393 11.673,4.731 12.202,4.202 C12.731,3.673 13.393,3.451 14.157,3.348 C14.756,3.268 15.486,3.253 16.353,3.251 C16.68,2.096 17.741,1.25 19,1.25 C20.519,1.25 21.75,2.481 21.75,4 C21.75,5.519 20.519,6.75 19,6.75 C17.742,6.75 16.68,5.905 16.354,4.751 C15.493,4.754 14.858,4.767 14.357,4.835 C13.759,4.915 13.466,5.059 13.263,5.263 C13.059,5.466 12.915,5.759 12.835,6.357 C12.77,6.842 12.755,7.453 12.751,8.271 Z M3.75,15.5 C3.75,16.993 4.587,18.413 6.075,19.488 C7.563,20.562 9.655,21.25 12,21.25 C14.345,21.25 16.438,20.562 17.925,19.488 C19.413,18.413 20.25,16.993 20.25,15.5 C20.25,14.007 19.413,12.587 17.925,11.512 C16.438,10.438 14.345,9.75 12,9.75 L11.998,9.75 C9.654,9.75 7.562,10.438 6.075,11.512 C4.587,12.587 3.75,14.007 3.75,15.5 Z M8.961,16.189 C9.823,16.861 10.872,17.25 12,17.25 C13.128,17.25 14.177,16.861 15.039,16.189 C15.366,15.934 15.837,15.993 16.091,16.319 C16.346,16.646 16.288,17.117 15.961,17.372 C14.853,18.236 13.484,18.75 12,18.75 C10.516,18.75 9.147,18.236 8.039,17.372 C7.712,17.117 7.654,16.646 7.908,16.319 C8.163,15.993 8.634,15.934 8.961,16.189 Z M17.75,4.001 C17.751,4.691 18.31,5.25 19,5.25 C19.69,5.25 20.25,4.69 20.25,4 C20.25,3.31 19.69,2.75 19,2.75 C18.31,2.75 17.75,3.31 17.75,4 Z M5.197,10.296 L5.232,10.271 C4.977,9.954 4.584,9.75 4.14,9.75 C3.366,9.75 2.75,10.37 2.75,11.12 C2.75,11.563 2.964,11.96 3.3,12.212 C3.794,11.487 4.442,10.841 5.197,10.296 Z M18.768,10.271 L18.803,10.296 C19.558,10.841 20.206,11.487 20.7,12.212 C21.037,11.96 21.25,11.563 21.25,11.12 C21.25,10.37 20.634,9.75 19.86,9.75 C19.416,9.75 19.023,9.954 18.768,10.271 Z M15.008,14 L14.999,14 C14.447,14 13.999,13.552 13.999,13 C13.999,12.448 14.447,12 14.999,12 L15.008,12 C15.56,12 16.008,12.448 16.008,13 C16.008,13.552 15.56,14 15.008,14 Z M10.008,13 C10.008,13.552 9.56,14 9.008,14 L8.999,14 C8.447,14 7.999,13.552 7.999,13 C7.999,12.448 8.447,12 8.999,12 L9.008,12 C9.56,12 10.008,12.448 10.008,13 Z" />
</svg>