<svg xmlns="http://www.w3.org/2000/svg" viewBox="0 0 24 24" width="128" height="128" color="#000000" fill="none">
    <defs />
    <path fill="currentColor" d="M2.332,2.659 C2.46,2.408 2.718,2.25 3,2.25 L8,2.25 C8.241,2.25 8.467,2.366 8.608,2.561 L13.544,9.395 L20.47,2.47 C20.763,2.177 21.237,2.177 21.53,2.47 C21.823,2.763 21.823,3.237 21.53,3.53 L14.434,10.627 L21.608,20.561 C21.773,20.789 21.796,21.091 21.668,21.341 C21.54,21.592 21.282,21.75 21,21.75 L16,21.75 C15.759,21.75 15.533,21.634 15.392,21.439 L10.456,14.605 L3.53,21.53 C3.237,21.823 2.763,21.823 2.47,21.53 C2.177,21.237 2.177,20.763 2.47,20.47 L9.566,13.373 L2.392,3.439 C2.227,3.211 2.204,2.909 2.332,2.659 Z M4.467,3.75 L16.383,20.25 L19.533,20.25 L7.617,3.75 Z" />
</svg>